solid OpenSCAD_Model
  facet normal -1 0 0
    outer loop
      vertex -0.999612 77.7844 0
      vertex -0.999612 81.2304 17.2
      vertex -0.999612 81.2304 0
    endloop
  endfacet
  facet normal -1 -0 0
    outer loop
      vertex -0.999612 81.2304 17.2
      vertex -0.999612 77.7844 0
      vertex -0.999612 77.7844 17.2
    endloop
  endfacet
  facet normal 0 1 -0
    outer loop
      vertex 81.5544 84.0004 0
      vertex 77.6204 84.0004 17.2
      vertex 81.5544 84.0004 17.2
    endloop
  endfacet
  facet normal 0 1 0
    outer loop
      vertex 77.6204 84.0004 17.2
      vertex 81.5544 84.0004 0
      vertex 77.6204 84.0004 0
    endloop
  endfacet
  facet normal 1 -0 0
    outer loop
      vertex 84.0004 1.76839 17.2
      vertex 84.0004 5.32039 0
      vertex 84.0004 5.32039 17.2
    endloop
  endfacet
  facet normal 1 0 0
    outer loop
      vertex 84.0004 5.32039 0
      vertex 84.0004 1.76839 17.2
      vertex 84.0004 1.76839 0
    endloop
  endfacet
  facet normal 1 -0 0
    outer loop
      vertex 84.0004 76.8984 17.2
      vertex 84.0004 81.2304 0
      vertex 84.0004 81.2304 17.2
    endloop
  endfacet
  facet normal 1 0 0
    outer loop
      vertex 84.0004 81.2304 0
      vertex 84.0004 76.8984 17.2
      vertex 84.0004 76.8984 0
    endloop
  endfacet
  facet normal -0.00056338 1 0
    outer loop
      vertex 5.31639 84.0004 0
      vertex 1.76639 83.9984 17.2
      vertex 5.31639 84.0004 17.2
    endloop
  endfacet
  facet normal -0.00056338 1 0
    outer loop
      vertex 1.76639 83.9984 17.2
      vertex 5.31639 84.0004 0
      vertex 1.76639 83.9984 0
    endloop
  endfacet
  facet normal -0.0480987 0.998843 0
    outer loop
      vertex 21.6804 84.7884 0
      vertex 5.31639 84.0004 17.2
      vertex 21.6804 84.7884 17.2
    endloop
  endfacet
  facet normal -0.0480987 0.998843 0
    outer loop
      vertex 5.31639 84.0004 17.2
      vertex 21.6804 84.7884 0
      vertex 5.31639 84.0004 0
    endloop
  endfacet
  facet normal 0.0476475 0.998864 -0
    outer loop
      vertex 77.6204 84.0004 0
      vertex 75.3144 84.1104 17.2
      vertex 77.6204 84.0004 17.2
    endloop
  endfacet
  facet normal 0.0476475 0.998864 0
    outer loop
      vertex 75.3144 84.1104 17.2
      vertex 77.6204 84.0004 0
      vertex 75.3144 84.1104 0
    endloop
  endfacet
  facet normal 0.0480364 0.998846 -0
    outer loop
      vertex 75.3144 84.1104 0
      vertex 61.2164 84.7884 17.2
      vertex 75.3144 84.1104 17.2
    endloop
  endfacet
  facet normal 0.0480364 0.998846 0
    outer loop
      vertex 61.2164 84.7884 17.2
      vertex 75.3144 84.1104 0
      vertex 61.2164 84.7884 0
    endloop
  endfacet
  facet normal 0 1 -0
    outer loop
      vertex 61.2164 84.7884 0
      vertex 21.6804 84.7884 17.2
      vertex 61.2164 84.7884 17.2
    endloop
  endfacet
  facet normal 0 1 0
    outer loop
      vertex 21.6804 84.7884 17.2
      vertex 61.2164 84.7884 0
      vertex 21.6804 84.7884 0
    endloop
  endfacet
  facet normal -0.998782 -0.0493455 -0.000116137
    outer loop
      vertex -1.78961 21.2044 0
      vertex -0.999612 5.21439 0
      vertex -1.79161 21.2044 17.2
    endloop
  endfacet
  facet normal -0.998776 -0.0494702 0
    outer loop
      vertex -0.999612 5.21439 0
      vertex -0.999612 5.21439 17.2
      vertex -1.79161 21.2044 17.2
    endloop
  endfacet
  facet normal -0.998781 0.0493579 0
    outer loop
      vertex -1.78961 61.7984 0
      vertex -0.999612 77.7844 17.2
      vertex -0.999612 77.7844 0
    endloop
  endfacet
  facet normal -0.998781 0.0493579 0
    outer loop
      vertex -0.999612 77.7844 17.2
      vertex -1.78961 61.7984 0
      vertex -1.78961 61.7984 17.2
    endloop
  endfacet
  facet normal -1 4.92545e-05 -0.000116279
    outer loop
      vertex -1.78961 41.5024 8.598
      vertex -1.78961 21.2044 0
      vertex -1.79161 21.2044 17.2
    endloop
  endfacet
  facet normal -1 9.85319e-05 0
    outer loop
      vertex -1.78961 41.5024 17.2
      vertex -1.78961 41.5024 8.598
      vertex -1.79161 21.2044 17.2
    endloop
  endfacet
  facet normal -1 0 0
    outer loop
      vertex -1.78961 61.7984 0
      vertex -1.78961 41.5024 8.598
      vertex -1.78961 61.7984 17.2
    endloop
  endfacet
  facet normal -1 0 -0
    outer loop
      vertex -1.78961 41.5024 8.598
      vertex -1.78961 61.7984 0
      vertex -1.78961 21.2044 0
    endloop
  endfacet
  facet normal -1 -0 0
    outer loop
      vertex -1.78961 61.7984 17.2
      vertex -1.78961 41.5024 8.598
      vertex -1.78961 41.5024 17.2
    endloop
  endfacet
  facet normal 0.0481617 -0.99884 0
    outer loop
      vertex 61.2924 -1.78961 0
      vertex 77.6764 -0.999612 17.2
      vertex 61.2924 -1.78961 17.2
    endloop
  endfacet
  facet normal 0.0481617 -0.99884 0
    outer loop
      vertex 77.6764 -0.999612 17.2
      vertex 61.2924 -1.78961 0
      vertex 77.6764 -0.999612 0
    endloop
  endfacet
  facet normal -0.0481558 -0.99884 0
    outer loop
      vertex 5.32039 -0.999612 0
      vertex 21.7064 -1.78961 17.2
      vertex 5.32039 -0.999612 17.2
    endloop
  endfacet
  facet normal -0.0481558 -0.99884 -0
    outer loop
      vertex 21.7064 -1.78961 17.2
      vertex 5.32039 -0.999612 0
      vertex 21.7064 -1.78961 0
    endloop
  endfacet
  facet normal 0 -1 0
    outer loop
      vertex 21.7064 -1.78961 0
      vertex 61.2924 -1.78961 17.2
      vertex 21.7064 -1.78961 17.2
    endloop
  endfacet
  facet normal 0 -1 -0
    outer loop
      vertex 61.2924 -1.78961 17.2
      vertex 21.7064 -1.78961 0
      vertex 61.2924 -1.78961 0
    endloop
  endfacet
  facet normal 0 -1 0
    outer loop
      vertex 77.6764 -0.999612 0
      vertex 81.2304 -0.999612 17.2
      vertex 77.6764 -0.999612 17.2
    endloop
  endfacet
  facet normal 0 -1 -0
    outer loop
      vertex 81.2304 -0.999612 17.2
      vertex 77.6764 -0.999612 0
      vertex 81.2304 -0.999612 0
    endloop
  endfacet
  facet normal 0 -1 0
    outer loop
      vertex 1.77439 -0.999612 0
      vertex 5.32039 -0.999612 17.2
      vertex 1.77439 -0.999612 17.2
    endloop
  endfacet
  facet normal 0 -1 -0
    outer loop
      vertex 5.32039 -0.999612 17.2
      vertex 1.77439 -0.999612 0
      vertex 5.32039 -0.999612 0
    endloop
  endfacet
  facet normal 0.998727 0.0504356 0
    outer loop
      vertex 84.7884 61.2944 17.2
      vertex 84.0004 76.8984 0
      vertex 84.0004 76.8984 17.2
    endloop
  endfacet
  facet normal 0.998727 0.0504356 0
    outer loop
      vertex 84.0004 76.8984 0
      vertex 84.7884 61.2944 17.2
      vertex 84.7884 61.2944 0
    endloop
  endfacet
  facet normal 0.998846 -0.0480343 0
    outer loop
      vertex 84.0004 5.32039 17.2
      vertex 84.7884 21.7064 0
      vertex 84.7884 21.7064 17.2
    endloop
  endfacet
  facet normal 0.998846 -0.0480343 0
    outer loop
      vertex 84.7884 21.7064 0
      vertex 84.0004 5.32039 17.2
      vertex 84.0004 5.32039 0
    endloop
  endfacet
  facet normal 1 -0 0
    outer loop
      vertex 84.7884 21.7064 17.2
      vertex 84.7884 61.2944 0
      vertex 84.7884 61.2944 17.2
    endloop
  endfacet
  facet normal 1 0 0
    outer loop
      vertex 84.7884 61.2944 0
      vertex 84.7884 21.7064 17.2
      vertex 84.7884 21.7064 0
    endloop
  endfacet
  facet normal -0 0 1
    outer loop
      vertex 41.3404 72.3824 1.2
      vertex 45 72.35 1.2
      vertex 71.8204 72.3904 1.2
    endloop
  endfacet
  facet normal 0 0 1
    outer loop
      vertex 41.3404 72.3824 1.2
      vertex 11 72.35 1.2
      vertex 45 72.35 1.2
    endloop
  endfacet
  facet normal -0 0 1
    outer loop
      vertex 10.8684 41.5004 1.2
      vertex 11 11 1.2
      vertex 11 72.35 1.2
    endloop
  endfacet
  facet normal 0 0 1
    outer loop
      vertex 11 11 1.2
      vertex 10.8684 41.5004 1.2
      vertex 10.8744 10.6244 1.2
    endloop
  endfacet
  facet normal 0 0 1
    outer loop
      vertex 11 72.35 1.2
      vertex 10.8624 72.3764 1.2
      vertex 10.8684 41.5004 1.2
    endloop
  endfacet
  facet normal -0 0 1
    outer loop
      vertex 10.8624 72.3764 1.2
      vertex 11 72.35 1.2
      vertex 41.3404 72.3824 1.2
    endloop
  endfacet
  facet normal -0 0 1
    outer loop
      vertex 45 72.35 1.2
      vertex 71.8264 41.4864 1.2
      vertex 71.8204 72.3904 1.2
    endloop
  endfacet
  facet normal 0 0 1
    outer loop
      vertex 71.8264 41.4864 1.2
      vertex 45 72.35 1.2
      vertex 45 11 1.2
    endloop
  endfacet
  facet normal 0 0 1
    outer loop
      vertex 71.8264 41.4864 1.2
      vertex 45 11 1.2
      vertex 71.8324 10.5824 1.2
    endloop
  endfacet
  facet normal 0 0 1
    outer loop
      vertex 45 11 1.2
      vertex 41.3544 10.6044 1.2
      vertex 71.8324 10.5824 1.2
    endloop
  endfacet
  facet normal -0 0 1
    outer loop
      vertex 11 11 1.2
      vertex 41.3544 10.6044 1.2
      vertex 45 11 1.2
    endloop
  endfacet
  facet normal 0 0 1
    outer loop
      vertex 41.3544 10.6044 1.2
      vertex 11 11 1.2
      vertex 10.8744 10.6244 1.2
    endloop
  endfacet
  facet normal -0.999986 -0.00520224 0
    outer loop
      vertex -0.981612 1.75439 0
      vertex -0.999612 5.21439 17.2
      vertex -0.999612 5.21439 0
    endloop
  endfacet
  facet normal -0.999986 -0.00520224 0
    outer loop
      vertex -0.999612 5.21439 17.2
      vertex -0.981612 1.75439 0
      vertex -0.981612 1.75439 17.2
    endloop
  endfacet
  facet normal -1 -0.00019415 0
    outer loop
      vertex 71.8264 41.4864 1.2
      vertex 71.8204 72.3904 9
      vertex 71.8204 72.3904 1.2
    endloop
  endfacet
  facet normal -1 -0.00019415 0
    outer loop
      vertex 71.8204 72.3904 9
      vertex 71.8264 41.4864 1.2
      vertex 71.8264 41.4864 9
    endloop
  endfacet
  facet normal -1 -0.00019415 0
    outer loop
      vertex 71.8324 10.5824 1.2
      vertex 71.8264 41.4864 9
      vertex 71.8264 41.4864 1.2
    endloop
  endfacet
  facet normal -1 -0.00019415 0
    outer loop
      vertex 71.8264 41.4864 9
      vertex 71.8324 10.5824 1.2
      vertex 71.8324 10.5824 9
    endloop
  endfacet
  facet normal 0.000196863 -1 0
    outer loop
      vertex 10.8624 72.3764 1.2
      vertex 41.3404 72.3824 9
      vertex 10.8624 72.3764 9
    endloop
  endfacet
  facet normal 0.000196863 -1 0
    outer loop
      vertex 41.3404 72.3824 9
      vertex 10.8624 72.3764 1.2
      vertex 41.3404 72.3824 1.2
    endloop
  endfacet
  facet normal 0.000262467 -1 0
    outer loop
      vertex 41.3404 72.3824 1.2
      vertex 71.8204 72.3904 9
      vertex 41.3404 72.3824 9
    endloop
  endfacet
  facet normal 0.000262467 -1 0
    outer loop
      vertex 71.8204 72.3904 9
      vertex 41.3404 72.3824 1.2
      vertex 71.8204 72.3904 1.2
    endloop
  endfacet
  facet normal 0.000656168 1 -0
    outer loop
      vertex 41.3544 10.6044 1.2
      vertex 10.8744 10.6244 9
      vertex 41.3544 10.6044 9
    endloop
  endfacet
  facet normal 0.000656168 1 0
    outer loop
      vertex 10.8744 10.6244 9
      vertex 41.3544 10.6044 1.2
      vertex 10.8744 10.6244 1.2
    endloop
  endfacet
  facet normal 0.000721832 1 -0
    outer loop
      vertex 71.8324 10.5824 1.2
      vertex 41.3544 10.6044 9
      vertex 71.8324 10.5824 9
    endloop
  endfacet
  facet normal 0.000721832 1 0
    outer loop
      vertex 41.3544 10.6044 9
      vertex 71.8324 10.5824 1.2
      vertex 41.3544 10.6044 1.2
    endloop
  endfacet
  facet normal 1 0.000194326 0
    outer loop
      vertex 10.8744 10.6244 9
      vertex 10.8684 41.5004 1.2
      vertex 10.8684 41.5004 9
    endloop
  endfacet
  facet normal 1 0.000194326 0
    outer loop
      vertex 10.8684 41.5004 1.2
      vertex 10.8744 10.6244 9
      vertex 10.8744 10.6244 1.2
    endloop
  endfacet
  facet normal 1 0.000194326 0
    outer loop
      vertex 10.8684 41.5004 9
      vertex 10.8624 72.3764 1.2
      vertex 10.8624 72.3764 9
    endloop
  endfacet
  facet normal 1 0.000194326 0
    outer loop
      vertex 10.8624 72.3764 1.2
      vertex 10.8684 41.5004 9
      vertex 10.8684 41.5004 1.2
    endloop
  endfacet
  facet normal 1 -0 0
    outer loop
      vertex 0.356387 21.2584 17.2
      vertex 0.356387 61.7464 9
      vertex 0.356387 61.7464 17.2
    endloop
  endfacet
  facet normal 1 0 0
    outer loop
      vertex 0.356387 61.7464 9
      vertex 0.356387 21.2584 17.2
      vertex 0.356387 21.2584 9
    endloop
  endfacet
  facet normal 0.998719 0.0506027 0
    outer loop
      vertex 1.32039 2.23239 17.2
      vertex 0.356387 21.2584 9
      vertex 0.356387 21.2584 17.2
    endloop
  endfacet
  facet normal 0.998719 0.0506027 0
    outer loop
      vertex 0.356387 21.2584 9
      vertex 1.32039 2.23239 17.2
      vertex 1.32039 2.23239 9
    endloop
  endfacet
  facet normal 0.0471618 0.998887 -0
    outer loop
      vertex 21.7564 0.356387 9
      vertex 2.22839 1.27839 17.2
      vertex 21.7564 0.356387 17.2
    endloop
  endfacet
  facet normal 0.0471618 0.998887 0
    outer loop
      vertex 2.22839 1.27839 17.2
      vertex 21.7564 0.356387 9
      vertex 2.22839 1.27839 9
    endloop
  endfacet
  facet normal 0 1 -0
    outer loop
      vertex 61.2404 0.356387 9
      vertex 21.7564 0.356387 17.2
      vertex 61.2404 0.356387 17.2
    endloop
  endfacet
  facet normal 0 1 0
    outer loop
      vertex 21.7564 0.356387 17.2
      vertex 61.2404 0.356387 9
      vertex 21.7564 0.356387 9
    endloop
  endfacet
  facet normal -0.0482023 0.998838 0
    outer loop
      vertex 80.7604 1.29839 9
      vertex 61.2404 0.356387 17.2
      vertex 80.7604 1.29839 17.2
    endloop
  endfacet
  facet normal -0.0482023 0.998838 0
    outer loop
      vertex 61.2404 0.356387 17.2
      vertex 80.7604 1.29839 9
      vertex 61.2404 0.356387 9
    endloop
  endfacet
  facet normal -0.998842 0.0481049 0
    outer loop
      vertex 81.7004 2.23839 9
      vertex 82.6404 21.7564 17.2
      vertex 82.6404 21.7564 9
    endloop
  endfacet
  facet normal -0.998842 0.0481049 0
    outer loop
      vertex 82.6404 21.7564 17.2
      vertex 81.7004 2.23839 9
      vertex 81.7004 2.23839 17.2
    endloop
  endfacet
  facet normal -1 0 0
    outer loop
      vertex 82.6404 21.7564 9
      vertex 82.6404 61.2404 17.2
      vertex 82.6404 61.2404 9
    endloop
  endfacet
  facet normal -1 -0 0
    outer loop
      vertex 82.6404 61.2404 17.2
      vertex 82.6404 21.7564 9
      vertex 82.6404 21.7564 17.2
    endloop
  endfacet
  facet normal -0.998722 -0.05055 0
    outer loop
      vertex 82.6404 61.2404 9
      vertex 81.6524 80.7604 17.2
      vertex 81.6524 80.7604 9
    endloop
  endfacet
  facet normal -0.998722 -0.05055 0
    outer loop
      vertex 81.6524 80.7604 17.2
      vertex 82.6404 61.2404 9
      vertex 82.6404 61.2404 17.2
    endloop
  endfacet
  facet normal -0.0480362 -0.998846 0
    outer loop
      vertex 61.1644 82.6404 9
      vertex 80.7104 81.7004 17.2
      vertex 61.1644 82.6404 17.2
    endloop
  endfacet
  facet normal -0.0480362 -0.998846 -0
    outer loop
      vertex 80.7104 81.7004 17.2
      vertex 61.1644 82.6404 9
      vertex 80.7104 81.7004 9
    endloop
  endfacet
  facet normal 0 -1 0
    outer loop
      vertex 21.7324 82.6404 9
      vertex 61.1644 82.6404 17.2
      vertex 21.7324 82.6404 17.2
    endloop
  endfacet
  facet normal 0 -1 -0
    outer loop
      vertex 61.1644 82.6404 17.2
      vertex 21.7324 82.6404 9
      vertex 61.1644 82.6404 9
    endloop
  endfacet
  facet normal 0.048159 -0.99884 0
    outer loop
      vertex 2.23639 81.7004 9
      vertex 21.7324 82.6404 17.2
      vertex 2.23639 81.7004 17.2
    endloop
  endfacet
  facet normal 0.048159 -0.99884 0
    outer loop
      vertex 21.7324 82.6404 17.2
      vertex 2.23639 81.7004 9
      vertex 21.7324 82.6404 9
    endloop
  endfacet
  facet normal 0.99878 -0.0493771 0
    outer loop
      vertex 0.356387 61.7464 17.2
      vertex 1.29639 80.7604 9
      vertex 1.29639 80.7604 17.2
    endloop
  endfacet
  facet normal 0.99878 -0.0493771 0
    outer loop
      vertex 1.29639 80.7604 9
      vertex 0.356387 61.7464 17.2
      vertex 0.356387 61.7464 9
    endloop
  endfacet
  facet normal 0.724355 0.689428 0
    outer loop
      vertex 2.22839 1.27839 17.2
      vertex 1.32039 2.23239 9
      vertex 1.32039 2.23239 17.2
    endloop
  endfacet
  facet normal 0.724355 0.689428 0
    outer loop
      vertex 1.32039 2.23239 9
      vertex 2.22839 1.27839 17.2
      vertex 2.22839 1.27839 9
    endloop
  endfacet
  facet normal -0.707107 0.707107 0
    outer loop
      vertex 81.7004 2.23839 9
      vertex 80.7604 1.29839 17.2
      vertex 81.7004 2.23839 17.2
    endloop
  endfacet
  facet normal -0.707107 0.707107 0
    outer loop
      vertex 80.7604 1.29839 17.2
      vertex 81.7004 2.23839 9
      vertex 80.7604 1.29839 9
    endloop
  endfacet
  facet normal -0.706355 -0.707858 0
    outer loop
      vertex 80.7104 81.7004 9
      vertex 81.6524 80.7604 17.2
      vertex 80.7104 81.7004 17.2
    endloop
  endfacet
  facet normal -0.706355 -0.707858 -0
    outer loop
      vertex 81.6524 80.7604 17.2
      vertex 80.7104 81.7004 9
      vertex 81.6524 80.7604 9
    endloop
  endfacet
  facet normal 0.707107 -0.707107 0
    outer loop
      vertex 1.29639 80.7604 17.2
      vertex 2.23639 81.7004 9
      vertex 2.23639 81.7004 17.2
    endloop
  endfacet
  facet normal 0.707107 -0.707107 0
    outer loop
      vertex 2.23639 81.7004 9
      vertex 1.29639 80.7604 17.2
      vertex 1.29639 80.7604 9
    endloop
  endfacet
  facet normal 0 0 1
    outer loop
      vertex 84.0004 81.2304 17.2
      vertex 81.6524 80.7604 17.2
      vertex 84.0004 76.8984 17.2
    endloop
  endfacet
  facet normal 0 0 1
    outer loop
      vertex 80.7104 81.7004 17.2
      vertex 82.5904 83.6704 17.2
      vertex 81.9104 83.9524 17.2
    endloop
  endfacet
  facet normal 0 0 1
    outer loop
      vertex 84.0004 76.8984 17.2
      vertex 81.6524 80.7604 17.2
      vertex 82.6404 61.2404 17.2
    endloop
  endfacet
  facet normal 0 0 1
    outer loop
      vertex 80.7104 81.7004 17.2
      vertex 81.9104 83.9524 17.2
      vertex 81.5544 84.0004 17.2
    endloop
  endfacet
  facet normal 0 0 1
    outer loop
      vertex 82.5904 83.6704 17.2
      vertex 80.7104 81.7004 17.2
      vertex 81.6524 80.7604 17.2
    endloop
  endfacet
  facet normal -0 0 1
    outer loop
      vertex 77.6204 84.0004 17.2
      vertex 80.7104 81.7004 17.2
      vertex 81.5544 84.0004 17.2
    endloop
  endfacet
  facet normal 0 0 1
    outer loop
      vertex 75.3144 84.1104 17.2
      vertex 80.7104 81.7004 17.2
      vertex 77.6204 84.0004 17.2
    endloop
  endfacet
  facet normal 0 0 1
    outer loop
      vertex 61.1644 82.6404 17.2
      vertex 75.3144 84.1104 17.2
      vertex 61.2164 84.7884 17.2
    endloop
  endfacet
  facet normal 0 0 1
    outer loop
      vertex 75.3144 84.1104 17.2
      vertex 61.1644 82.6404 17.2
      vertex 80.7104 81.7004 17.2
    endloop
  endfacet
  facet normal 0 0 1
    outer loop
      vertex 61.2164 84.7884 17.2
      vertex 21.7324 82.6404 17.2
      vertex 61.1644 82.6404 17.2
    endloop
  endfacet
  facet normal -0 0 1
    outer loop
      vertex 21.6804 84.7884 17.2
      vertex 21.7324 82.6404 17.2
      vertex 61.2164 84.7884 17.2
    endloop
  endfacet
  facet normal -0 0 1
    outer loop
      vertex 5.31639 84.0004 17.2
      vertex 21.7324 82.6404 17.2
      vertex 21.6804 84.7884 17.2
    endloop
  endfacet
  facet normal 0 0 1
    outer loop
      vertex 5.31639 84.0004 17.2
      vertex 2.23639 81.7004 17.2
      vertex 21.7324 82.6404 17.2
    endloop
  endfacet
  facet normal -0 0 1
    outer loop
      vertex 1.76639 83.9984 17.2
      vertex 2.23639 81.7004 17.2
      vertex 5.31639 84.0004 17.2
    endloop
  endfacet
  facet normal -0 0 1
    outer loop
      vertex 1.05039 83.9044 17.2
      vertex 2.23639 81.7004 17.2
      vertex 1.76639 83.9984 17.2
    endloop
  endfacet
  facet normal -0 0 1
    outer loop
      vertex 0.382387 83.6284 17.2
      vertex 2.23639 81.7004 17.2
      vertex 1.05039 83.9044 17.2
    endloop
  endfacet
  facet normal -0 0 1
    outer loop
      vertex -0.191612 83.1864 17.2
      vertex 2.23639 81.7004 17.2
      vertex 0.382387 83.6284 17.2
    endloop
  endfacet
  facet normal 0 0 1
    outer loop
      vertex 2.23639 81.7004 17.2
      vertex -0.191612 83.1864 17.2
      vertex 1.29639 80.7604 17.2
    endloop
  endfacet
  facet normal -0 0 1
    outer loop
      vertex -1.78961 41.5024 17.2
      vertex 0.356387 21.2584 17.2
      vertex 0.356387 61.7464 17.2
    endloop
  endfacet
  facet normal 0 0 1
    outer loop
      vertex 1.29639 80.7604 17.2
      vertex -0.999612 77.7844 17.2
      vertex 0.356387 61.7464 17.2
    endloop
  endfacet
  facet normal -0 0 1
    outer loop
      vertex -0.629612 82.6144 17.2
      vertex 1.29639 80.7604 17.2
      vertex -0.191612 83.1864 17.2
    endloop
  endfacet
  facet normal 0 0 1
    outer loop
      vertex 0.356387 21.2584 17.2
      vertex -1.78961 41.5024 17.2
      vertex -1.79161 21.2044 17.2
    endloop
  endfacet
  facet normal -0 0 1
    outer loop
      vertex -0.905612 81.9464 17.2
      vertex 1.29639 80.7604 17.2
      vertex -0.629612 82.6144 17.2
    endloop
  endfacet
  facet normal 0 -0 1
    outer loop
      vertex -0.999612 5.21439 17.2
      vertex 0.356387 21.2584 17.2
      vertex -1.79161 21.2044 17.2
    endloop
  endfacet
  facet normal 0 0 1
    outer loop
      vertex 1.29639 80.7604 17.2
      vertex -0.905612 81.9464 17.2
      vertex -0.999612 81.2304 17.2
    endloop
  endfacet
  facet normal 0 0 1
    outer loop
      vertex -0.173613 -0.193612 17.2
      vertex -0.981612 1.75439 17.2
      vertex -0.611612 0.376387 17.2
    endloop
  endfacet
  facet normal 0 0 1
    outer loop
      vertex 1.29639 80.7604 17.2
      vertex -0.999612 81.2304 17.2
      vertex -0.999612 77.7844 17.2
    endloop
  endfacet
  facet normal 0 0 1
    outer loop
      vertex 0.356387 61.7464 17.2
      vertex -0.999612 77.7844 17.2
      vertex -1.78961 61.7984 17.2
    endloop
  endfacet
  facet normal 0 0 1
    outer loop
      vertex -0.611612 0.376387 17.2
      vertex -0.981612 1.75439 17.2
      vertex -0.887612 1.04239 17.2
    endloop
  endfacet
  facet normal 0 0 1
    outer loop
      vertex 0.356387 61.7464 17.2
      vertex -1.78961 61.7984 17.2
      vertex -1.78961 41.5024 17.2
    endloop
  endfacet
  facet normal -0 -0 1
    outer loop
      vertex -0.981612 1.75439 17.2
      vertex -0.173613 -0.193612 17.2
      vertex -0.999612 5.21439 17.2
    endloop
  endfacet
  facet normal 0 0 1
    outer loop
      vertex 0.356387 21.2584 17.2
      vertex -0.999612 5.21439 17.2
      vertex -0.173613 -0.193612 17.2
    endloop
  endfacet
  facet normal 0 0 1
    outer loop
      vertex 81.6524 80.7604 17.2
      vertex 83.1744 83.2224 17.2
      vertex 82.5904 83.6704 17.2
    endloop
  endfacet
  facet normal 0 0 1
    outer loop
      vertex 84.0004 76.8984 17.2
      vertex 82.6404 61.2404 17.2
      vertex 84.0004 5.32039 17.2
    endloop
  endfacet
  facet normal 0 0 1
    outer loop
      vertex 81.7004 2.23839 17.2
      vertex 84.0004 5.32039 17.2
      vertex 82.6404 21.7564 17.2
    endloop
  endfacet
  facet normal 0 0 1
    outer loop
      vertex 83.6204 82.6404 17.2
      vertex 81.6524 80.7604 17.2
      vertex 83.9024 81.9604 17.2
    endloop
  endfacet
  facet normal 0 0 1
    outer loop
      vertex 84.0004 5.32039 17.2
      vertex 81.7004 2.23839 17.2
      vertex 84.0004 1.76839 17.2
    endloop
  endfacet
  facet normal 0 0 1
    outer loop
      vertex 81.6524 80.7604 17.2
      vertex 83.6204 82.6404 17.2
      vertex 83.1744 83.2224 17.2
    endloop
  endfacet
  facet normal 0 0 1
    outer loop
      vertex 84.0004 1.76839 17.2
      vertex 81.7004 2.23839 17.2
      vertex 83.9044 1.05039 17.2
    endloop
  endfacet
  facet normal 0 0 1
    outer loop
      vertex 83.9024 81.9604 17.2
      vertex 81.6524 80.7604 17.2
      vertex 84.0004 81.2304 17.2
    endloop
  endfacet
  facet normal 0 0 1
    outer loop
      vertex 84.0004 5.32039 17.2
      vertex 82.6404 61.2404 17.2
      vertex 82.6404 21.7564 17.2
    endloop
  endfacet
  facet normal 0 0 1
    outer loop
      vertex 83.9044 1.05039 17.2
      vertex 81.7004 2.23839 17.2
      vertex 83.6284 0.382387 17.2
    endloop
  endfacet
  facet normal 0 0 1
    outer loop
      vertex 83.6284 0.382387 17.2
      vertex 81.7004 2.23839 17.2
      vertex 83.1884 -0.191612 17.2
    endloop
  endfacet
  facet normal -0 0 1
    outer loop
      vertex 80.7604 1.29839 17.2
      vertex 83.1884 -0.191612 17.2
      vertex 81.7004 2.23839 17.2
    endloop
  endfacet
  facet normal 0 0 1
    outer loop
      vertex 83.1884 -0.191612 17.2
      vertex 80.7604 1.29839 17.2
      vertex 82.6144 -0.629612 17.2
    endloop
  endfacet
  facet normal 0 0 1
    outer loop
      vertex 82.6144 -0.629612 17.2
      vertex 80.7604 1.29839 17.2
      vertex 81.9464 -0.905612 17.2
    endloop
  endfacet
  facet normal 0 0 1
    outer loop
      vertex 81.9464 -0.905612 17.2
      vertex 80.7604 1.29839 17.2
      vertex 81.2304 -0.999612 17.2
    endloop
  endfacet
  facet normal 0 0 1
    outer loop
      vertex 80.7604 1.29839 17.2
      vertex 77.6764 -0.999612 17.2
      vertex 81.2304 -0.999612 17.2
    endloop
  endfacet
  facet normal -0 0 1
    outer loop
      vertex 61.2404 0.356387 17.2
      vertex 77.6764 -0.999612 17.2
      vertex 80.7604 1.29839 17.2
    endloop
  endfacet
  facet normal 0 0 1
    outer loop
      vertex 77.6764 -0.999612 17.2
      vertex 61.2404 0.356387 17.2
      vertex 61.2924 -1.78961 17.2
    endloop
  endfacet
  facet normal -0 0 1
    outer loop
      vertex 21.7564 0.356387 17.2
      vertex 61.2924 -1.78961 17.2
      vertex 61.2404 0.356387 17.2
    endloop
  endfacet
  facet normal 0 0 1
    outer loop
      vertex 21.7564 0.356387 17.2
      vertex 21.7064 -1.78961 17.2
      vertex 61.2924 -1.78961 17.2
    endloop
  endfacet
  facet normal 0 0 1
    outer loop
      vertex 21.7564 0.356387 17.2
      vertex 5.32039 -0.999612 17.2
      vertex 21.7064 -1.78961 17.2
    endloop
  endfacet
  facet normal 0 0 1
    outer loop
      vertex 2.22839 1.27839 17.2
      vertex 5.32039 -0.999612 17.2
      vertex 21.7564 0.356387 17.2
    endloop
  endfacet
  facet normal 0 0 1
    outer loop
      vertex 2.22839 1.27839 17.2
      vertex 1.77439 -0.999612 17.2
      vertex 5.32039 -0.999612 17.2
    endloop
  endfacet
  facet normal 0 0 1
    outer loop
      vertex -0.173613 -0.193612 17.2
      vertex 2.22839 1.27839 17.2
      vertex 1.32039 2.23239 17.2
    endloop
  endfacet
  facet normal 0 0 1
    outer loop
      vertex 2.22839 1.27839 17.2
      vertex 1.06239 -0.905612 17.2
      vertex 1.77439 -0.999612 17.2
    endloop
  endfacet
  facet normal 0 0 1
    outer loop
      vertex 2.22839 1.27839 17.2
      vertex 0.396387 -0.631612 17.2
      vertex 1.06239 -0.905612 17.2
    endloop
  endfacet
  facet normal 0 0 1
    outer loop
      vertex -0.173613 -0.193612 17.2
      vertex 1.32039 2.23239 17.2
      vertex 0.356387 21.2584 17.2
    endloop
  endfacet
  facet normal 0 0 1
    outer loop
      vertex 2.22839 1.27839 17.2
      vertex -0.173613 -0.193612 17.2
      vertex 0.396387 -0.631612 17.2
    endloop
  endfacet
  facet normal 0 0 1
    outer loop
      vertex 84.0004 76.8984 17.2
      vertex 84.7884 21.7064 17.2
      vertex 84.7884 61.2944 17.2
    endloop
  endfacet
  facet normal 0 0 1
    outer loop
      vertex 84.7884 21.7064 17.2
      vertex 84.0004 76.8984 17.2
      vertex 84.0004 5.32039 17.2
    endloop
  endfacet
  facet normal -0.130168 0.991492 0
    outer loop
      vertex 1.76639 83.9984 0
      vertex 1.05039 83.9044 17.2
      vertex 1.76639 83.9984 17.2
    endloop
  endfacet
  facet normal -0.130168 0.991492 0
    outer loop
      vertex 1.05039 83.9044 17.2
      vertex 1.76639 83.9984 0
      vertex 1.05039 83.9044 0
    endloop
  endfacet
  facet normal -0.991492 0.130168 0
    outer loop
      vertex -0.999612 81.2304 0
      vertex -0.905612 81.9464 17.2
      vertex -0.905612 81.9464 0
    endloop
  endfacet
  facet normal -0.991492 0.130168 0
    outer loop
      vertex -0.905612 81.9464 17.2
      vertex -0.999612 81.2304 0
      vertex -0.999612 81.2304 17.2
    endloop
  endfacet
  facet normal -0.924219 0.381863 0
    outer loop
      vertex -0.905612 81.9464 0
      vertex -0.629612 82.6144 17.2
      vertex -0.629612 82.6144 0
    endloop
  endfacet
  facet normal -0.924219 0.381863 0
    outer loop
      vertex -0.629612 82.6144 17.2
      vertex -0.905612 81.9464 0
      vertex -0.905612 81.9464 17.2
    endloop
  endfacet
  facet normal -0.793964 0.607965 0
    outer loop
      vertex -0.629612 82.6144 0
      vertex -0.191612 83.1864 17.2
      vertex -0.191612 83.1864 0
    endloop
  endfacet
  facet normal -0.793964 0.607965 0
    outer loop
      vertex -0.191612 83.1864 17.2
      vertex -0.629612 82.6144 0
      vertex -0.629612 82.6144 17.2
    endloop
  endfacet
  facet normal -0.610112 0.792315 0
    outer loop
      vertex 0.382387 83.6284 0
      vertex -0.191612 83.1864 17.2
      vertex 0.382387 83.6284 17.2
    endloop
  endfacet
  facet normal -0.610112 0.792315 0
    outer loop
      vertex -0.191612 83.1864 17.2
      vertex 0.382387 83.6284 0
      vertex -0.191612 83.1864 0
    endloop
  endfacet
  facet normal -0.381861 0.92422 0
    outer loop
      vertex 1.05039 83.9044 0
      vertex 0.382387 83.6284 17.2
      vertex 1.05039 83.9044 17.2
    endloop
  endfacet
  facet normal -0.381861 0.92422 0
    outer loop
      vertex 0.382387 83.6284 17.2
      vertex 1.05039 83.9044 0
      vertex 0.382387 83.6284 0
    endloop
  endfacet
  facet normal -0.991397 -0.130887 0
    outer loop
      vertex -0.887612 1.04239 0
      vertex -0.981612 1.75439 17.2
      vertex -0.981612 1.75439 0
    endloop
  endfacet
  facet normal -0.991397 -0.130887 0
    outer loop
      vertex -0.981612 1.75439 17.2
      vertex -0.887612 1.04239 0
      vertex -0.887612 1.04239 17.2
    endloop
  endfacet
  facet normal -0.130887 -0.991397 0
    outer loop
      vertex 1.06239 -0.905612 0
      vertex 1.77439 -0.999612 17.2
      vertex 1.06239 -0.905612 17.2
    endloop
  endfacet
  facet normal -0.130887 -0.991397 -0
    outer loop
      vertex 1.77439 -0.999612 17.2
      vertex 1.06239 -0.905612 0
      vertex 1.77439 -0.999612 0
    endloop
  endfacet
  facet normal -0.380469 -0.924794 0
    outer loop
      vertex 0.396387 -0.631612 0
      vertex 1.06239 -0.905612 17.2
      vertex 0.396387 -0.631612 17.2
    endloop
  endfacet
  facet normal -0.380469 -0.924794 -0
    outer loop
      vertex 1.06239 -0.905612 17.2
      vertex 0.396387 -0.631612 0
      vertex 1.06239 -0.905612 0
    endloop
  endfacet
  facet normal -0.609307 -0.792934 0
    outer loop
      vertex -0.173613 -0.193612 0
      vertex 0.396387 -0.631612 17.2
      vertex -0.173613 -0.193612 17.2
    endloop
  endfacet
  facet normal -0.609307 -0.792934 -0
    outer loop
      vertex 0.396387 -0.631612 17.2
      vertex -0.173613 -0.193612 0
      vertex 0.396387 -0.631612 0
    endloop
  endfacet
  facet normal -0.792934 -0.609307 0
    outer loop
      vertex -0.173613 -0.193612 0
      vertex -0.611612 0.376387 17.2
      vertex -0.611612 0.376387 0
    endloop
  endfacet
  facet normal -0.792934 -0.609307 0
    outer loop
      vertex -0.611612 0.376387 17.2
      vertex -0.173613 -0.193612 0
      vertex -0.173613 -0.193612 17.2
    endloop
  endfacet
  facet normal -0.923815 -0.38284 0
    outer loop
      vertex -0.611612 0.376387 0
      vertex -0.887612 1.04239 17.2
      vertex -0.887612 1.04239 0
    endloop
  endfacet
  facet normal -0.923815 -0.38284 0
    outer loop
      vertex -0.887612 1.04239 17.2
      vertex -0.611612 0.376387 0
      vertex -0.611612 0.376387 17.2
    endloop
  endfacet
  facet normal 0.99118 -0.132525 0
    outer loop
      vertex 83.9044 1.05039 17.2
      vertex 84.0004 1.76839 0
      vertex 84.0004 1.76839 17.2
    endloop
  endfacet
  facet normal 0.99118 -0.132525 0
    outer loop
      vertex 84.0004 1.76839 0
      vertex 83.9044 1.05039 17.2
      vertex 83.9044 1.05039 0
    endloop
  endfacet
  facet normal 0.92422 -0.381861 0
    outer loop
      vertex 83.6284 0.382387 17.2
      vertex 83.9044 1.05039 0
      vertex 83.9044 1.05039 17.2
    endloop
  endfacet
  facet normal 0.92422 -0.381861 0
    outer loop
      vertex 83.9044 1.05039 0
      vertex 83.6284 0.382387 17.2
      vertex 83.6284 0.382387 0
    endloop
  endfacet
  facet normal 0.79365 -0.608374 0
    outer loop
      vertex 83.1884 -0.191612 17.2
      vertex 83.6284 0.382387 0
      vertex 83.6284 0.382387 17.2
    endloop
  endfacet
  facet normal 0.79365 -0.608374 0
    outer loop
      vertex 83.6284 0.382387 0
      vertex 83.1884 -0.191612 17.2
      vertex 83.1884 -0.191612 0
    endloop
  endfacet
  facet normal 0.606627 -0.794986 0
    outer loop
      vertex 82.6144 -0.629612 0
      vertex 83.1884 -0.191612 17.2
      vertex 82.6144 -0.629612 17.2
    endloop
  endfacet
  facet normal 0.606627 -0.794986 0
    outer loop
      vertex 83.1884 -0.191612 17.2
      vertex 82.6144 -0.629612 0
      vertex 83.1884 -0.191612 0
    endloop
  endfacet
  facet normal 0.381863 -0.924219 0
    outer loop
      vertex 81.9464 -0.905612 0
      vertex 82.6144 -0.629612 17.2
      vertex 81.9464 -0.905612 17.2
    endloop
  endfacet
  facet normal 0.381863 -0.924219 0
    outer loop
      vertex 82.6144 -0.629612 17.2
      vertex 81.9464 -0.905612 0
      vertex 82.6144 -0.629612 0
    endloop
  endfacet
  facet normal 0.130168 -0.991492 0
    outer loop
      vertex 81.2304 -0.999612 0
      vertex 81.9464 -0.905612 17.2
      vertex 81.2304 -0.999612 17.2
    endloop
  endfacet
  facet normal 0.130168 -0.991492 0
    outer loop
      vertex 81.9464 -0.905612 17.2
      vertex 81.2304 -0.999612 0
      vertex 81.9464 -0.905612 0
    endloop
  endfacet
  facet normal 0.133622 0.991032 -0
    outer loop
      vertex 81.9104 83.9524 0
      vertex 81.5544 84.0004 17.2
      vertex 81.9104 83.9524 17.2
    endloop
  endfacet
  facet normal 0.133622 0.991032 0
    outer loop
      vertex 81.5544 84.0004 17.2
      vertex 81.9104 83.9524 0
      vertex 81.5544 84.0004 0
    endloop
  endfacet
  facet normal 0.383072 0.923719 -0
    outer loop
      vertex 82.5904 83.6704 0
      vertex 81.9104 83.9524 17.2
      vertex 82.5904 83.6704 17.2
    endloop
  endfacet
  facet normal 0.383072 0.923719 0
    outer loop
      vertex 81.9104 83.9524 17.2
      vertex 82.5904 83.6704 0
      vertex 81.9104 83.9524 0
    endloop
  endfacet
  facet normal 0.60866 0.793431 -0
    outer loop
      vertex 83.1744 83.2224 0
      vertex 82.5904 83.6704 17.2
      vertex 83.1744 83.2224 17.2
    endloop
  endfacet
  facet normal 0.60866 0.793431 0
    outer loop
      vertex 82.5904 83.6704 17.2
      vertex 83.1744 83.2224 0
      vertex 82.5904 83.6704 0
    endloop
  endfacet
  facet normal 0.793738 0.60826 0
    outer loop
      vertex 83.6204 82.6404 17.2
      vertex 83.1744 83.2224 0
      vertex 83.1744 83.2224 17.2
    endloop
  endfacet
  facet normal 0.793738 0.60826 0
    outer loop
      vertex 83.1744 83.2224 0
      vertex 83.6204 82.6404 17.2
      vertex 83.6204 82.6404 0
    endloop
  endfacet
  facet normal 0.923719 0.383072 0
    outer loop
      vertex 83.9024 81.9604 17.2
      vertex 83.6204 82.6404 0
      vertex 83.6204 82.6404 17.2
    endloop
  endfacet
  facet normal 0.923719 0.383072 0
    outer loop
      vertex 83.6204 82.6404 0
      vertex 83.9024 81.9604 17.2
      vertex 83.9024 81.9604 0
    endloop
  endfacet
  facet normal 0.991109 0.133053 0
    outer loop
      vertex 84.0004 81.2304 17.2
      vertex 83.9024 81.9604 0
      vertex 83.9024 81.9604 17.2
    endloop
  endfacet
  facet normal 0.991109 0.133053 0
    outer loop
      vertex 83.9024 81.9604 0
      vertex 84.0004 81.2304 17.2
      vertex 84.0004 81.2304 0
    endloop
  endfacet
  facet normal 0 0 1
    outer loop
      vertex 82.6404 21.7564 9
      vertex 71.8264 41.4864 9
      vertex 71.8324 10.5824 9
    endloop
  endfacet
  facet normal 0 0 1
    outer loop
      vertex 82.6404 61.2404 9
      vertex 71.8204 72.3904 9
      vertex 71.8264 41.4864 9
    endloop
  endfacet
  facet normal 0 0 1
    outer loop
      vertex 61.1644 82.6404 9
      vertex 71.8204 72.3904 9
      vertex 80.7104 81.7004 9
    endloop
  endfacet
  facet normal 0 0 1
    outer loop
      vertex 61.1644 82.6404 9
      vertex 41.3404 72.3824 9
      vertex 71.8204 72.3904 9
    endloop
  endfacet
  facet normal -0 0 1
    outer loop
      vertex 21.7324 82.6404 9
      vertex 41.3404 72.3824 9
      vertex 61.1644 82.6404 9
    endloop
  endfacet
  facet normal 0 0 1
    outer loop
      vertex 21.7324 82.6404 9
      vertex 10.8624 72.3764 9
      vertex 41.3404 72.3824 9
    endloop
  endfacet
  facet normal 0 -0 1
    outer loop
      vertex 10.8624 72.3764 9
      vertex 21.7324 82.6404 9
      vertex 2.23639 81.7004 9
    endloop
  endfacet
  facet normal -0 0 1
    outer loop
      vertex 71.8264 41.4864 9
      vertex 82.6404 21.7564 9
      vertex 82.6404 61.2404 9
    endloop
  endfacet
  facet normal 0 0 1
    outer loop
      vertex 71.8204 72.3904 9
      vertex 81.6524 80.7604 9
      vertex 80.7104 81.7004 9
    endloop
  endfacet
  facet normal 0 0 1
    outer loop
      vertex 82.6404 21.7564 9
      vertex 71.8324 10.5824 9
      vertex 81.7004 2.23839 9
    endloop
  endfacet
  facet normal 0 0 1
    outer loop
      vertex 81.6524 80.7604 9
      vertex 71.8204 72.3904 9
      vertex 82.6404 61.2404 9
    endloop
  endfacet
  facet normal 0 0 1
    outer loop
      vertex 81.7004 2.23839 9
      vertex 71.8324 10.5824 9
      vertex 80.7604 1.29839 9
    endloop
  endfacet
  facet normal 0 0 1
    outer loop
      vertex 71.8324 10.5824 9
      vertex 61.2404 0.356387 9
      vertex 80.7604 1.29839 9
    endloop
  endfacet
  facet normal 0 0 1
    outer loop
      vertex 41.3544 10.6044 9
      vertex 61.2404 0.356387 9
      vertex 71.8324 10.5824 9
    endloop
  endfacet
  facet normal 0 0 1
    outer loop
      vertex 41.3544 10.6044 9
      vertex 21.7564 0.356387 9
      vertex 61.2404 0.356387 9
    endloop
  endfacet
  facet normal 0 0 1
    outer loop
      vertex 10.8744 10.6244 9
      vertex 21.7564 0.356387 9
      vertex 41.3544 10.6044 9
    endloop
  endfacet
  facet normal -0 0 1
    outer loop
      vertex 0.356387 61.7464 9
      vertex 10.8684 41.5004 9
      vertex 10.8624 72.3764 9
    endloop
  endfacet
  facet normal -0 0 1
    outer loop
      vertex 1.29639 80.7604 9
      vertex 10.8624 72.3764 9
      vertex 2.23639 81.7004 9
    endloop
  endfacet
  facet normal 0 0 1
    outer loop
      vertex 10.8744 10.6244 9
      vertex 2.22839 1.27839 9
      vertex 21.7564 0.356387 9
    endloop
  endfacet
  facet normal 0 0 1
    outer loop
      vertex 0.356387 21.2584 9
      vertex 10.8684 41.5004 9
      vertex 0.356387 61.7464 9
    endloop
  endfacet
  facet normal 0 -0 1
    outer loop
      vertex 1.32039 2.23239 9
      vertex 10.8744 10.6244 9
      vertex 0.356387 21.2584 9
    endloop
  endfacet
  facet normal 0 0 1
    outer loop
      vertex 10.8624 72.3764 9
      vertex 1.29639 80.7604 9
      vertex 0.356387 61.7464 9
    endloop
  endfacet
  facet normal 0 0 1
    outer loop
      vertex 10.8684 41.5004 9
      vertex 0.356387 21.2584 9
      vertex 10.8744 10.6244 9
    endloop
  endfacet
  facet normal 0 0 1
    outer loop
      vertex 10.8744 10.6244 9
      vertex 1.32039 2.23239 9
      vertex 2.22839 1.27839 9
    endloop
  endfacet
  facet normal 0 0 -1
    outer loop
      vertex 11 11 0
      vertex -1.78961 61.7984 0
      vertex 11 72.35 0
    endloop
  endfacet
  facet normal -0 0 -1
    outer loop
      vertex 11 72.35 0
      vertex -1.78961 61.7984 0
      vertex -0.999612 77.7844 0
    endloop
  endfacet
  facet normal 0 0 -1
    outer loop
      vertex 77.6764 -0.999612 0
      vertex 84.0004 5.32039 0
      vertex 84.0004 1.76839 0
    endloop
  endfacet
  facet normal 0 0 -1
    outer loop
      vertex 84.0004 5.32039 0
      vertex 45 11 0
      vertex 84.0004 76.8984 0
    endloop
  endfacet
  facet normal 0 0 -1
    outer loop
      vertex 81.2304 -0.999612 0
      vertex 84.0004 1.76839 0
      vertex 83.9044 1.05039 0
    endloop
  endfacet
  facet normal 0 0 -1
    outer loop
      vertex 45 72.35 0
      vertex 84.0004 76.8984 0
      vertex 45 11 0
    endloop
  endfacet
  facet normal 0 0 -1
    outer loop
      vertex 81.2304 -0.999612 0
      vertex 83.9044 1.05039 0
      vertex 83.6284 0.382387 0
    endloop
  endfacet
  facet normal 0 -0 -1
    outer loop
      vertex 61.2164 84.7884 0
      vertex 84.0004 76.8984 0
      vertex 45 72.35 0
    endloop
  endfacet
  facet normal 0 0 -1
    outer loop
      vertex 81.2304 -0.999612 0
      vertex 83.6284 0.382387 0
      vertex 83.1884 -0.191612 0
    endloop
  endfacet
  facet normal 0 0 -1
    outer loop
      vertex 61.2924 -1.78961 0
      vertex 84.0004 5.32039 0
      vertex 77.6764 -0.999612 0
    endloop
  endfacet
  facet normal 0 0 -1
    outer loop
      vertex 81.2304 -0.999612 0
      vertex 83.1884 -0.191612 0
      vertex 82.6144 -0.629612 0
    endloop
  endfacet
  facet normal -0 -0 -1
    outer loop
      vertex 77.6204 84.0004 0
      vertex 84.0004 76.8984 0
      vertex 75.3144 84.1104 0
    endloop
  endfacet
  facet normal 0 0 -1
    outer loop
      vertex 81.2304 -0.999612 0
      vertex 82.6144 -0.629612 0
      vertex 81.9464 -0.905612 0
    endloop
  endfacet
  facet normal 0 0 -1
    outer loop
      vertex 83.9024 81.9604 0
      vertex 81.5544 84.0004 0
      vertex 83.6204 82.6404 0
    endloop
  endfacet
  facet normal 0 0 -1
    outer loop
      vertex 83.1744 83.2224 0
      vertex 81.5544 84.0004 0
      vertex 82.5904 83.6704 0
    endloop
  endfacet
  facet normal 0 0 -1
    outer loop
      vertex 84.0004 1.76839 0
      vertex 81.2304 -0.999612 0
      vertex 77.6764 -0.999612 0
    endloop
  endfacet
  facet normal 0 0 -1
    outer loop
      vertex 83.6204 82.6404 0
      vertex 81.5544 84.0004 0
      vertex 83.1744 83.2224 0
    endloop
  endfacet
  facet normal 0 0 -1
    outer loop
      vertex 82.5904 83.6704 0
      vertex 81.5544 84.0004 0
      vertex 81.9104 83.9524 0
    endloop
  endfacet
  facet normal 0 0 -1
    outer loop
      vertex 84.0004 81.2304 0
      vertex 81.5544 84.0004 0
      vertex 83.9024 81.9604 0
    endloop
  endfacet
  facet normal -0 0 -1
    outer loop
      vertex 84.0004 5.32039 0
      vertex 61.2924 -1.78961 0
      vertex 45 11 0
    endloop
  endfacet
  facet normal 0 0 -1
    outer loop
      vertex 84.0004 76.8984 0
      vertex 77.6204 84.0004 0
      vertex 84.0004 81.2304 0
    endloop
  endfacet
  facet normal -0 -0 -1
    outer loop
      vertex 81.5544 84.0004 0
      vertex 84.0004 81.2304 0
      vertex 77.6204 84.0004 0
    endloop
  endfacet
  facet normal 0 0 -1
    outer loop
      vertex 21.7064 -1.78961 0
      vertex 45 11 0
      vertex 61.2924 -1.78961 0
    endloop
  endfacet
  facet normal 0 0 -1
    outer loop
      vertex 21.7064 -1.78961 0
      vertex 11 11 0
      vertex 45 11 0
    endloop
  endfacet
  facet normal 0 0 -1
    outer loop
      vertex -0.999612 5.21439 0
      vertex 11 11 0
      vertex 5.32039 -0.999612 0
    endloop
  endfacet
  facet normal 0 0 -1
    outer loop
      vertex 5.32039 -0.999612 0
      vertex 11 11 0
      vertex 21.7064 -1.78961 0
    endloop
  endfacet
  facet normal 0 0 -1
    outer loop
      vertex 84.0004 5.32039 0
      vertex 84.7884 61.2944 0
      vertex 84.7884 21.7064 0
    endloop
  endfacet
  facet normal -0 0 -1
    outer loop
      vertex 84.7884 61.2944 0
      vertex 84.0004 5.32039 0
      vertex 84.0004 76.8984 0
    endloop
  endfacet
  facet normal 0 0 -1
    outer loop
      vertex 84.0004 76.8984 0
      vertex 61.2164 84.7884 0
      vertex 75.3144 84.1104 0
    endloop
  endfacet
  facet normal 0 0 -1
    outer loop
      vertex 45 72.35 0
      vertex 21.6804 84.7884 0
      vertex 61.2164 84.7884 0
    endloop
  endfacet
  facet normal 0 0 -1
    outer loop
      vertex 11 72.35 0
      vertex 21.6804 84.7884 0
      vertex 45 72.35 0
    endloop
  endfacet
  facet normal 0 0 -1
    outer loop
      vertex 11 72.35 0
      vertex 5.31639 84.0004 0
      vertex 21.6804 84.7884 0
    endloop
  endfacet
  facet normal 0 0 -1
    outer loop
      vertex -1.78961 21.2044 0
      vertex 11 11 0
      vertex -0.999612 5.21439 0
    endloop
  endfacet
  facet normal 0 0 -1
    outer loop
      vertex -0.999612 5.21439 0
      vertex 5.32039 -0.999612 0
      vertex 1.77439 -0.999612 0
    endloop
  endfacet
  facet normal 0 0 -1
    outer loop
      vertex -1.78961 61.7984 0
      vertex 11 11 0
      vertex -1.78961 21.2044 0
    endloop
  endfacet
  facet normal 0 0 -1
    outer loop
      vertex -0.981612 1.75439 0
      vertex 1.77439 -0.999612 0
      vertex 1.06239 -0.905612 0
    endloop
  endfacet
  facet normal 0 0 -1
    outer loop
      vertex 11 72.35 0
      vertex -0.999612 77.7844 0
      vertex 5.31639 84.0004 0
    endloop
  endfacet
  facet normal 0 0 -1
    outer loop
      vertex -0.981612 1.75439 0
      vertex 1.06239 -0.905612 0
      vertex 0.396387 -0.631612 0
    endloop
  endfacet
  facet normal 0 0 -1
    outer loop
      vertex 5.31639 84.0004 0
      vertex -0.999612 77.7844 0
      vertex 1.76639 83.9984 0
    endloop
  endfacet
  facet normal 0 0 -1
    outer loop
      vertex -0.981612 1.75439 0
      vertex 0.396387 -0.631612 0
      vertex -0.173613 -0.193612 0
    endloop
  endfacet
  facet normal 0 0 -1
    outer loop
      vertex -0.999612 81.2304 0
      vertex 1.76639 83.9984 0
      vertex -0.999612 77.7844 0
    endloop
  endfacet
  facet normal 0 0 -1
    outer loop
      vertex -0.981612 1.75439 0
      vertex -0.173613 -0.193612 0
      vertex -0.611612 0.376387 0
    endloop
  endfacet
  facet normal 0 0 -1
    outer loop
      vertex 1.76639 83.9984 0
      vertex -0.999612 81.2304 0
      vertex 1.05039 83.9044 0
    endloop
  endfacet
  facet normal 0 0 -1
    outer loop
      vertex -0.981612 1.75439 0
      vertex -0.611612 0.376387 0
      vertex -0.887612 1.04239 0
    endloop
  endfacet
  facet normal 0 0 -1
    outer loop
      vertex 1.05039 83.9044 0
      vertex -0.999612 81.2304 0
      vertex 0.382387 83.6284 0
    endloop
  endfacet
  facet normal 0 0 -1
    outer loop
      vertex 1.77439 -0.999612 0
      vertex -0.981612 1.75439 0
      vertex -0.999612 5.21439 0
    endloop
  endfacet
  facet normal 0 0 -1
    outer loop
      vertex 0.382387 83.6284 0
      vertex -0.999612 81.2304 0
      vertex -0.191612 83.1864 0
    endloop
  endfacet
  facet normal 0 0 -1
    outer loop
      vertex -0.191612 83.1864 0
      vertex -0.999612 81.2304 0
      vertex -0.629612 82.6144 0
    endloop
  endfacet
  facet normal 0 0 -1
    outer loop
      vertex -0.629612 82.6144 0
      vertex -0.999612 81.2304 0
      vertex -0.905612 81.9464 0
    endloop
  endfacet
  facet normal -1 0 0
    outer loop
      vertex 45 11 0
      vertex 45 72.35 1.2
      vertex 45 72.35 0
    endloop
  endfacet
  facet normal -1 -0 0
    outer loop
      vertex 45 72.35 1.2
      vertex 45 11 0
      vertex 45 11 1.2
    endloop
  endfacet
  facet normal 1 -0 0
    outer loop
      vertex 11 11 1.2
      vertex 11 72.35 0
      vertex 11 72.35 1.2
    endloop
  endfacet
  facet normal 1 0 0
    outer loop
      vertex 11 72.35 0
      vertex 11 11 1.2
      vertex 11 11 0
    endloop
  endfacet
  facet normal 0 -1 0
    outer loop
      vertex 11 72.35 0
      vertex 45 72.35 1.2
      vertex 11 72.35 1.2
    endloop
  endfacet
  facet normal 0 -1 -0
    outer loop
      vertex 45 72.35 1.2
      vertex 11 72.35 0
      vertex 45 72.35 0
    endloop
  endfacet
  facet normal 0 1 -0
    outer loop
      vertex 45 11 0
      vertex 11 11 1.2
      vertex 45 11 1.2
    endloop
  endfacet
  facet normal 0 1 0
    outer loop
      vertex 11 11 1.2
      vertex 45 11 0
      vertex 11 11 0
    endloop
  endfacet
endsolid OpenSCAD_Model
